<mxfile host="app.diagrams.net" modified="2023-11-06T22:42:42.948Z" agent="Mozilla/5.0 (Windows NT 10.0; Win64; x64) AppleWebKit/537.36 (KHTML, like Gecko) Chrome/117.0.0.0 Safari/537.36 OPR/103.0.0.0" etag="KTmSlCFhxCiKbboebQ2u" version="21.3.2" type="github">
  <diagram name="Page-1" id="2YBvvXClWsGukQMizWep">
    <mxGraphModel dx="2406" dy="1247" grid="1" gridSize="10" guides="1" tooltips="1" connect="1" arrows="1" fold="1" page="1" pageScale="1" pageWidth="850" pageHeight="1100" math="0" shadow="0">
      <root>
        <mxCell id="0" />
        <mxCell id="1" parent="0" />
        <mxCell id="aM9ryv3xv72pqoxQDRHE-1" value="Sistema" style="shape=umlLifeline;perimeter=lifelinePerimeter;whiteSpace=wrap;html=1;container=0;dropTarget=0;collapsible=0;recursiveResize=0;outlineConnect=0;portConstraint=eastwest;newEdgeStyle={&quot;edgeStyle&quot;:&quot;elbowEdgeStyle&quot;,&quot;elbow&quot;:&quot;vertical&quot;,&quot;curved&quot;:0,&quot;rounded&quot;:0};" parent="1" vertex="1">
          <mxGeometry x="-465" y="180" width="100" height="740" as="geometry" />
        </mxCell>
        <mxCell id="nkhA25vk58w9wrungdip-11" value="" style="html=1;points=[];perimeter=orthogonalPerimeter;outlineConnect=0;targetShapes=umlLifeline;portConstraint=eastwest;newEdgeStyle={&quot;edgeStyle&quot;:&quot;elbowEdgeStyle&quot;,&quot;elbow&quot;:&quot;vertical&quot;,&quot;curved&quot;:0,&quot;rounded&quot;:0};" vertex="1" parent="aM9ryv3xv72pqoxQDRHE-1">
          <mxGeometry x="45" y="120" width="10" height="60" as="geometry" />
        </mxCell>
        <mxCell id="nkhA25vk58w9wrungdip-17" value="" style="html=1;points=[];perimeter=orthogonalPerimeter;outlineConnect=0;targetShapes=umlLifeline;portConstraint=eastwest;newEdgeStyle={&quot;edgeStyle&quot;:&quot;elbowEdgeStyle&quot;,&quot;elbow&quot;:&quot;vertical&quot;,&quot;curved&quot;:0,&quot;rounded&quot;:0};" vertex="1" parent="aM9ryv3xv72pqoxQDRHE-1">
          <mxGeometry x="45" y="200" width="10" height="30" as="geometry" />
        </mxCell>
        <mxCell id="nkhA25vk58w9wrungdip-18" value="" style="endArrow=block;endFill=1;endSize=12;html=1;rounded=0;" edge="1" parent="aM9ryv3xv72pqoxQDRHE-1" source="nkhA25vk58w9wrungdip-11" target="nkhA25vk58w9wrungdip-17">
          <mxGeometry width="160" relative="1" as="geometry">
            <mxPoint y="160" as="sourcePoint" />
            <mxPoint x="160" y="160" as="targetPoint" />
            <Array as="points">
              <mxPoint x="110" y="180" />
              <mxPoint x="110" y="190" />
              <mxPoint x="110" y="200" />
            </Array>
          </mxGeometry>
        </mxCell>
        <mxCell id="nkhA25vk58w9wrungdip-19" value="recuperarListaProductos()" style="edgeLabel;html=1;align=center;verticalAlign=middle;resizable=0;points=[];" vertex="1" connectable="0" parent="nkhA25vk58w9wrungdip-18">
          <mxGeometry x="0.0047" relative="1" as="geometry">
            <mxPoint x="30" as="offset" />
          </mxGeometry>
        </mxCell>
        <mxCell id="nkhA25vk58w9wrungdip-30" value="" style="html=1;points=[];perimeter=orthogonalPerimeter;outlineConnect=0;targetShapes=umlLifeline;portConstraint=eastwest;newEdgeStyle={&quot;edgeStyle&quot;:&quot;elbowEdgeStyle&quot;,&quot;elbow&quot;:&quot;vertical&quot;,&quot;curved&quot;:0,&quot;rounded&quot;:0};" vertex="1" parent="aM9ryv3xv72pqoxQDRHE-1">
          <mxGeometry x="45" y="260" width="10" height="30" as="geometry" />
        </mxCell>
        <mxCell id="nkhA25vk58w9wrungdip-45" value="" style="html=1;points=[];perimeter=orthogonalPerimeter;outlineConnect=0;targetShapes=umlLifeline;portConstraint=eastwest;newEdgeStyle={&quot;edgeStyle&quot;:&quot;elbowEdgeStyle&quot;,&quot;elbow&quot;:&quot;vertical&quot;,&quot;curved&quot;:0,&quot;rounded&quot;:0};" vertex="1" parent="aM9ryv3xv72pqoxQDRHE-1">
          <mxGeometry x="45" y="340" width="10" height="120" as="geometry" />
        </mxCell>
        <mxCell id="nkhA25vk58w9wrungdip-52" value="" style="html=1;points=[];perimeter=orthogonalPerimeter;outlineConnect=0;targetShapes=umlLifeline;portConstraint=eastwest;newEdgeStyle={&quot;edgeStyle&quot;:&quot;elbowEdgeStyle&quot;,&quot;elbow&quot;:&quot;vertical&quot;,&quot;curved&quot;:0,&quot;rounded&quot;:0};" vertex="1" parent="aM9ryv3xv72pqoxQDRHE-1">
          <mxGeometry x="45" y="480" width="10" height="220" as="geometry" />
        </mxCell>
        <mxCell id="nkhA25vk58w9wrungdip-53" value="" style="endArrow=block;endFill=1;endSize=12;html=1;rounded=0;" edge="1" parent="aM9ryv3xv72pqoxQDRHE-1" source="nkhA25vk58w9wrungdip-45" target="nkhA25vk58w9wrungdip-52">
          <mxGeometry width="160" relative="1" as="geometry">
            <mxPoint x="57" y="460" as="sourcePoint" />
            <mxPoint x="57" y="480" as="targetPoint" />
            <Array as="points">
              <mxPoint x="112" y="460" />
              <mxPoint x="112" y="470" />
              <mxPoint x="112" y="480" />
            </Array>
          </mxGeometry>
        </mxCell>
        <mxCell id="nkhA25vk58w9wrungdip-54" value="validarInformación()" style="edgeLabel;html=1;align=center;verticalAlign=middle;resizable=0;points=[];" vertex="1" connectable="0" parent="nkhA25vk58w9wrungdip-53">
          <mxGeometry x="0.0047" relative="1" as="geometry">
            <mxPoint x="30" as="offset" />
          </mxGeometry>
        </mxCell>
        <mxCell id="nkhA25vk58w9wrungdip-55" value="" style="endArrow=block;endFill=1;endSize=12;html=1;rounded=0;" edge="1" parent="aM9ryv3xv72pqoxQDRHE-1" source="nkhA25vk58w9wrungdip-52" target="nkhA25vk58w9wrungdip-52">
          <mxGeometry width="160" relative="1" as="geometry">
            <mxPoint x="54" y="520" as="sourcePoint" />
            <mxPoint x="54" y="540" as="targetPoint" />
            <Array as="points">
              <mxPoint x="111" y="520" />
              <mxPoint x="111" y="530" />
              <mxPoint x="111" y="540" />
            </Array>
          </mxGeometry>
        </mxCell>
        <mxCell id="nkhA25vk58w9wrungdip-56" value="confirmarCompra()" style="edgeLabel;html=1;align=center;verticalAlign=middle;resizable=0;points=[];" vertex="1" connectable="0" parent="nkhA25vk58w9wrungdip-55">
          <mxGeometry x="0.0047" relative="1" as="geometry">
            <mxPoint x="30" as="offset" />
          </mxGeometry>
        </mxCell>
        <mxCell id="nkhA25vk58w9wrungdip-57" value="" style="endArrow=block;endFill=1;endSize=12;html=1;rounded=0;" edge="1" parent="aM9ryv3xv72pqoxQDRHE-1" source="nkhA25vk58w9wrungdip-52" target="nkhA25vk58w9wrungdip-52">
          <mxGeometry width="160" relative="1" as="geometry">
            <mxPoint x="55" y="560" as="sourcePoint" />
            <mxPoint x="55" y="580" as="targetPoint" />
            <Array as="points">
              <mxPoint x="111" y="560" />
              <mxPoint x="111" y="570" />
              <mxPoint x="111" y="580" />
            </Array>
          </mxGeometry>
        </mxCell>
        <mxCell id="nkhA25vk58w9wrungdip-58" value="enviarCorreoConfirmación()" style="edgeLabel;html=1;align=center;verticalAlign=middle;resizable=0;points=[];" vertex="1" connectable="0" parent="nkhA25vk58w9wrungdip-57">
          <mxGeometry x="0.0047" relative="1" as="geometry">
            <mxPoint x="30" as="offset" />
          </mxGeometry>
        </mxCell>
        <mxCell id="aM9ryv3xv72pqoxQDRHE-5" value="Carrito de Compras" style="shape=umlLifeline;perimeter=lifelinePerimeter;whiteSpace=wrap;html=1;container=0;dropTarget=0;collapsible=0;recursiveResize=0;outlineConnect=0;portConstraint=eastwest;newEdgeStyle={&quot;edgeStyle&quot;:&quot;elbowEdgeStyle&quot;,&quot;elbow&quot;:&quot;vertical&quot;,&quot;curved&quot;:0,&quot;rounded&quot;:0};" parent="1" vertex="1">
          <mxGeometry x="-285" y="180" width="100" height="740" as="geometry" />
        </mxCell>
        <mxCell id="nkhA25vk58w9wrungdip-5" value="" style="endArrow=block;endFill=1;endSize=12;html=1;rounded=0;" edge="1" parent="1">
          <mxGeometry width="160" relative="1" as="geometry">
            <mxPoint x="-585.189655172414" y="306" as="sourcePoint" />
            <mxPoint x="-420" y="306" as="targetPoint" />
          </mxGeometry>
        </mxCell>
        <mxCell id="nkhA25vk58w9wrungdip-9" value="buscarProducto" style="edgeLabel;html=1;align=center;verticalAlign=middle;resizable=0;points=[];" vertex="1" connectable="0" parent="nkhA25vk58w9wrungdip-5">
          <mxGeometry x="-0.1667" y="-1" relative="1" as="geometry">
            <mxPoint as="offset" />
          </mxGeometry>
        </mxCell>
        <mxCell id="nkhA25vk58w9wrungdip-8" value="" style="shape=umlLifeline;perimeter=lifelinePerimeter;whiteSpace=wrap;html=1;container=1;dropTarget=0;collapsible=0;recursiveResize=0;outlineConnect=0;portConstraint=eastwest;newEdgeStyle={&quot;edgeStyle&quot;:&quot;elbowEdgeStyle&quot;,&quot;elbow&quot;:&quot;vertical&quot;,&quot;curved&quot;:0,&quot;rounded&quot;:0};participant=umlActor;" vertex="1" parent="1">
          <mxGeometry x="-595" y="180" width="20" height="740" as="geometry" />
        </mxCell>
        <mxCell id="nkhA25vk58w9wrungdip-20" value="" style="endArrow=open;endFill=1;endSize=12;html=1;rounded=0;dashed=1;" edge="1" parent="1" source="nkhA25vk58w9wrungdip-17" target="nkhA25vk58w9wrungdip-8">
          <mxGeometry width="160" relative="1" as="geometry">
            <mxPoint x="-420" y="410" as="sourcePoint" />
            <mxPoint x="-585.0882352941178" y="410" as="targetPoint" />
          </mxGeometry>
        </mxCell>
        <mxCell id="nkhA25vk58w9wrungdip-22" value="mostrar Productos[ ]" style="edgeLabel;html=1;align=center;verticalAlign=middle;resizable=0;points=[];" vertex="1" connectable="0" parent="nkhA25vk58w9wrungdip-20">
          <mxGeometry x="0.1324" y="-1" relative="1" as="geometry">
            <mxPoint as="offset" />
          </mxGeometry>
        </mxCell>
        <mxCell id="nkhA25vk58w9wrungdip-27" value="" style="endArrow=open;endFill=0;endSize=12;html=1;rounded=0;" edge="1" parent="1">
          <mxGeometry width="160" relative="1" as="geometry">
            <mxPoint x="-585.0882352941178" y="447" as="sourcePoint" />
            <mxPoint x="-420" y="447" as="targetPoint" />
          </mxGeometry>
        </mxCell>
        <mxCell id="nkhA25vk58w9wrungdip-28" value="seleccionarProducto" style="edgeLabel;html=1;align=center;verticalAlign=middle;resizable=0;points=[];" vertex="1" connectable="0" parent="nkhA25vk58w9wrungdip-27">
          <mxGeometry x="-0.1667" y="-1" relative="1" as="geometry">
            <mxPoint as="offset" />
          </mxGeometry>
        </mxCell>
        <mxCell id="nkhA25vk58w9wrungdip-33" style="edgeStyle=elbowEdgeStyle;rounded=0;orthogonalLoop=1;jettySize=auto;html=1;elbow=vertical;curved=0;" edge="1" parent="1" source="nkhA25vk58w9wrungdip-35" target="aM9ryv3xv72pqoxQDRHE-5">
          <mxGeometry relative="1" as="geometry" />
        </mxCell>
        <mxCell id="nkhA25vk58w9wrungdip-36" value="" style="edgeStyle=elbowEdgeStyle;rounded=0;orthogonalLoop=1;jettySize=auto;html=1;elbow=vertical;curved=0;endArrow=block;endFill=1;" edge="1" parent="1" source="nkhA25vk58w9wrungdip-30" target="nkhA25vk58w9wrungdip-35">
          <mxGeometry relative="1" as="geometry">
            <mxPoint x="-410" y="455" as="sourcePoint" />
            <mxPoint x="-235" y="455" as="targetPoint" />
          </mxGeometry>
        </mxCell>
        <mxCell id="nkhA25vk58w9wrungdip-37" value="añadirAlCarrito()" style="edgeLabel;html=1;align=center;verticalAlign=middle;resizable=0;points=[];" vertex="1" connectable="0" parent="nkhA25vk58w9wrungdip-36">
          <mxGeometry x="-0.0892" y="1" relative="1" as="geometry">
            <mxPoint as="offset" />
          </mxGeometry>
        </mxCell>
        <mxCell id="nkhA25vk58w9wrungdip-35" value="" style="html=1;points=[];perimeter=orthogonalPerimeter;outlineConnect=0;targetShapes=umlLifeline;portConstraint=eastwest;newEdgeStyle={&quot;edgeStyle&quot;:&quot;elbowEdgeStyle&quot;,&quot;elbow&quot;:&quot;vertical&quot;,&quot;curved&quot;:0,&quot;rounded&quot;:0};" vertex="1" parent="1">
          <mxGeometry x="-240" y="440" width="10" height="30" as="geometry" />
        </mxCell>
        <mxCell id="nkhA25vk58w9wrungdip-41" value="loop" style="shape=umlFrame;whiteSpace=wrap;html=1;pointerEvents=0;width=90;height=20;" vertex="1" parent="1">
          <mxGeometry x="-655" y="414" width="450" height="80" as="geometry" />
        </mxCell>
        <mxCell id="nkhA25vk58w9wrungdip-42" value="para cada &lt;br style=&quot;font-size: 10px;&quot;&gt;producto" style="text;html=1;align=center;verticalAlign=middle;resizable=0;points=[];autosize=1;strokeColor=none;fillColor=none;fontSize=10;" vertex="1" parent="1">
          <mxGeometry x="-655" y="435" width="70" height="40" as="geometry" />
        </mxCell>
        <mxCell id="nkhA25vk58w9wrungdip-43" value="" style="endArrow=block;endFill=1;endSize=12;html=1;rounded=0;" edge="1" parent="1">
          <mxGeometry width="160" relative="1" as="geometry">
            <mxPoint x="-585.189655172414" y="526" as="sourcePoint" />
            <mxPoint x="-420" y="526" as="targetPoint" />
          </mxGeometry>
        </mxCell>
        <mxCell id="nkhA25vk58w9wrungdip-44" value="finalizarCompra" style="edgeLabel;html=1;align=center;verticalAlign=middle;resizable=0;points=[];" vertex="1" connectable="0" parent="nkhA25vk58w9wrungdip-43">
          <mxGeometry x="-0.1667" y="-1" relative="1" as="geometry">
            <mxPoint as="offset" />
          </mxGeometry>
        </mxCell>
        <mxCell id="nkhA25vk58w9wrungdip-46" value="" style="endArrow=block;endFill=1;endSize=12;html=1;rounded=0;" edge="1" parent="1">
          <mxGeometry width="160" relative="1" as="geometry">
            <mxPoint x="-420" y="575.9999999999999" as="sourcePoint" />
            <mxPoint x="-585.189655172414" y="575.9999999999999" as="targetPoint" />
          </mxGeometry>
        </mxCell>
        <mxCell id="nkhA25vk58w9wrungdip-47" value="solicitarInformación()" style="edgeLabel;html=1;align=center;verticalAlign=middle;resizable=0;points=[];" vertex="1" connectable="0" parent="nkhA25vk58w9wrungdip-46">
          <mxGeometry x="-0.1667" y="-1" relative="1" as="geometry">
            <mxPoint as="offset" />
          </mxGeometry>
        </mxCell>
        <mxCell id="nkhA25vk58w9wrungdip-48" value="" style="endArrow=open;endFill=1;endSize=12;html=1;rounded=0;dashed=1;" edge="1" parent="1">
          <mxGeometry width="160" relative="1" as="geometry">
            <mxPoint x="-585.189655172414" y="624.9999999999999" as="sourcePoint" />
            <mxPoint x="-420" y="624.9999999999999" as="targetPoint" />
          </mxGeometry>
        </mxCell>
        <mxCell id="nkhA25vk58w9wrungdip-49" value="regresa datosUsuario" style="edgeLabel;html=1;align=center;verticalAlign=middle;resizable=0;points=[];" vertex="1" connectable="0" parent="nkhA25vk58w9wrungdip-48">
          <mxGeometry x="0.1324" y="-1" relative="1" as="geometry">
            <mxPoint x="-14" as="offset" />
          </mxGeometry>
        </mxCell>
        <mxCell id="nkhA25vk58w9wrungdip-50" value="alternative" style="shape=umlFrame;whiteSpace=wrap;html=1;pointerEvents=0;width=90;height=20;" vertex="1" parent="1">
          <mxGeometry x="-655" y="683" width="410" height="167" as="geometry" />
        </mxCell>
        <mxCell id="nkhA25vk58w9wrungdip-51" value="" style="line;strokeWidth=1;fillColor=none;align=left;verticalAlign=middle;spacingTop=-1;spacingLeft=3;spacingRight=3;rotatable=0;labelPosition=right;points=[];portConstraint=eastwest;strokeColor=inherit;dashed=1;" vertex="1" parent="1">
          <mxGeometry x="-655" y="746" width="410" height="68" as="geometry" />
        </mxCell>
        <mxCell id="nkhA25vk58w9wrungdip-59" value="" style="endArrow=open;endFill=1;endSize=12;html=1;rounded=0;dashed=1;" edge="1" parent="1" source="nkhA25vk58w9wrungdip-52" target="nkhA25vk58w9wrungdip-8">
          <mxGeometry width="160" relative="1" as="geometry">
            <mxPoint x="-575.189655172414" y="634.9999999999999" as="sourcePoint" />
            <mxPoint x="-410" y="634.9999999999999" as="targetPoint" />
          </mxGeometry>
        </mxCell>
        <mxCell id="nkhA25vk58w9wrungdip-60" value="mensaje compra confirmada" style="edgeLabel;html=1;align=center;verticalAlign=middle;resizable=0;points=[];" vertex="1" connectable="0" parent="nkhA25vk58w9wrungdip-59">
          <mxGeometry x="0.1324" y="-1" relative="1" as="geometry">
            <mxPoint x="19" y="-9" as="offset" />
          </mxGeometry>
        </mxCell>
        <mxCell id="nkhA25vk58w9wrungdip-61" value="[si información&lt;br&gt;válida]" style="text;html=1;align=center;verticalAlign=middle;resizable=0;points=[];autosize=1;strokeColor=none;fillColor=none;fontSize=10;" vertex="1" parent="1">
          <mxGeometry x="-665" y="706" width="90" height="40" as="geometry" />
        </mxCell>
        <mxCell id="nkhA25vk58w9wrungdip-62" value="[else]" style="text;html=1;align=center;verticalAlign=middle;resizable=0;points=[];autosize=1;strokeColor=none;fillColor=none;fontSize=10;" vertex="1" parent="1">
          <mxGeometry x="-645" y="795" width="50" height="30" as="geometry" />
        </mxCell>
        <mxCell id="nkhA25vk58w9wrungdip-64" value="" style="endArrow=open;endFill=1;endSize=12;html=1;rounded=0;dashed=1;" edge="1" parent="1">
          <mxGeometry width="160" relative="1" as="geometry">
            <mxPoint x="-420" y="822" as="sourcePoint" />
            <mxPoint x="-585.2142857142856" y="822" as="targetPoint" />
          </mxGeometry>
        </mxCell>
        <mxCell id="nkhA25vk58w9wrungdip-65" value="mensaje datos incorrectos" style="edgeLabel;html=1;align=center;verticalAlign=middle;resizable=0;points=[];" vertex="1" connectable="0" parent="nkhA25vk58w9wrungdip-64">
          <mxGeometry x="0.1324" y="-1" relative="1" as="geometry">
            <mxPoint x="19" y="-9" as="offset" />
          </mxGeometry>
        </mxCell>
      </root>
    </mxGraphModel>
  </diagram>
</mxfile>
